<svg xmlns="http://www.w3.org/2000/svg" version="1.1" xml:space="preserve" id="asvg257" width="276" height="128" viewBox="0 0 276 128"><style type="text/css" id="astyle217">.ast0,.ast1{fill-rule:evenodd;clip-rule:evenodd;fill:#f68b1f}.ast1{fill:#a6193c}</style><path id="apath219" d="M33.472 25.49h48.81c7.766 0 14.075 6.371 14.075 14.198v48.693c0 7.758-6.378 14.13-14.074 14.13h-43.61v-6.442h43.194c4.645 0 8.112-3.532 8.112-8.034v-48c0-4.641-3.467-8.104-8.112-8.104H33.819c-4.646 0-8.112 3.532-8.112 8.104v28.467c-2.15 1.94-4.368 3.948-6.102 6.234-.069.138-.208.277-.277.346V39.688c0-7.827 6.379-14.199 14.144-14.199z" class="ast0" clip-rule="evenodd" fill="#f68b1f" fill-rule="evenodd" stroke-width=".693"/><path id="apath221" d="M30.56 36.78c14.005.623 27.11 12.536 27.317 26.874.14-15.654 14.7-26.46 27.248-26.944v17.8c-9.082.278-20.245-.068-27.317 9.49-30.021 0-47.147 27.29-44.928 51.325h19.275C29.38 96 36.73 70.095 57.808 64c15.6 0 26.485 14.753 27.317 27.22H67.376c-.277-9.835-.624-20.778-9.568-27.22-6.795-9.281-17.056-9.143-27.248-9.42z" class="ast1" clip-rule="evenodd" fill="#a6193c" fill-rule="evenodd" stroke-width=".693"/><path id="apath225" d="M182.261 80.139c-.277-.07-.832-.208-1.248-.208-1.94 0-3.536.623-4.368 2.493-.277.554-.485 1.455-.554 2.078-.139 1.108-.07 2.494.277 3.602.901 2.147 3.675 3.186 5.824 2.286V80.139zm3.19-13.23c1.11 0 2.08.139 3.19.277v27.567c-1.318.416-2.636.762-4.022.9-1.526.208-2.982.278-4.507.278-2.565 0-5.408-.693-7.35-2.425-2.842-2.354-3.674-6.58-2.98-10.112.277-1.385.693-2.701 1.386-3.948a10.071 10.071 0 012.773-2.91c1.18-.761 2.496-1.384 3.883-1.662a11.699 11.699 0 012.288-.207c.763 0 1.456.069 2.219.207h.069v-7.688c.901-.07 1.941-.277 3.05-.277z" class="ast1" clip-rule="evenodd" fill="#a6193c" fill-rule="evenodd" stroke-width=".693"/><path id="apath227" d="M141.632 51.532l-.208-.069c-1.387-.07-2.773-.277-4.16.07-1.387.346-2.357 1.246-2.357 2.77 0 1.178.554 2.216 1.733 2.494 1.595.623 3.397.346 4.992-.07zm0-4.155c0-.693-.07-1.247-.277-1.732a3.477 3.477 0 00-.694-.97c-.346-.277-.693-.485-1.248-.554-.485-.138-1.109-.208-1.802-.208-1.179 0-2.358.139-3.536.416-.347.07-.694.208-1.11.346l-.416.139-.208-.346c-.554-.97-.832-2.148-.832-3.256v-.415c.14-.07.208-.07.347-.139 1.456-.416 3.05-.831 4.576-.831 1.387-.07 3.328-.07 5.061.415 1.04.347 1.942.832 2.635 1.455.693.623 1.248 1.455 1.595 2.493.346.97.554 2.148.554 3.464V60.26c-.624.138-1.317.277-1.94.415-1.249.208-2.497.485-3.745.554-2.427.139-4.715.07-7.003-.761-.832-.347-1.664-.97-2.288-1.663a7.22 7.22 0 01-1.386-4.294c0-.97.277-2.217.762-3.048.694-1.385 1.942-2.424 3.26-3.047 2.01-1.04 4.644-1.04 6.794-.9.277 0 .485 0 .693.068h.07v-.207z" class="ast1" clip-rule="evenodd" fill="#a6193c" fill-rule="evenodd" stroke-width=".693"/><path id="apath229" d="M203.824 82.77c-.07-.276-.139-.554-.208-.9a2.89 2.89 0 00-2.773-2.009c-.902 0-1.803.278-2.427.9-.624.624-.763 1.317-.97 2.079h6.378zm-6.517 4.78c.069.415.138.762.346 1.108.555.97 1.387 1.455 2.427 1.8.555.14 1.387.278 1.941.278 1.942 0 3.536-.485 5.408-1.039.416.693.763 1.524.971 2.286.208.97.347 1.8.347 2.77a19.472 19.472 0 01-7.142 1.316c-1.594 0-3.328-.208-4.853-.83-3.259-1.248-5.27-4.157-5.755-7.55-.346-2.01-.138-4.434.486-6.373.624-1.94 1.733-3.532 3.328-4.78 1.733-1.315 3.882-1.87 6.032-1.87 1.941 0 3.813.486 5.408 1.663 1.456 1.108 2.496 2.563 3.12 4.364.485 1.523.554 2.978.554 4.571 0 .762-.138 1.524-.277 2.286z" class="ast1" clip-rule="evenodd" fill="#a6193c" fill-rule="evenodd" stroke-width=".693"/><path id="apath231" d="M257.141 82.77c-.069-.276-.138-.554-.208-.9a2.89 2.89 0 00-2.773-2.009c-.901 0-1.803.278-2.427.9-.624.624-.762 1.317-.97 2.079h6.378zm-6.448 4.78c.07.415.14.762.347 1.108.555.97 1.387 1.455 2.427 1.8.554.14 1.386.278 1.941.278 1.941 0 3.536-.485 5.408-1.039.416.693.763 1.524.97 2.286.209.97.347 1.8.347 2.77a19.472 19.472 0 01-7.14 1.316c-1.596 0-3.329-.208-4.854-.83-3.259-1.248-5.27-4.157-5.755-7.55-.347-2.01-.139-4.434.485-6.373.624-1.94 1.734-3.532 3.328-4.78 1.734-1.315 3.883-1.87 6.032-1.87 1.942 0 3.814.486 5.408 1.663 1.456 1.108 2.496 2.563 3.12 4.364.486 1.523.555 2.978.555 4.571 0 .762-.139 1.524-.277 2.286z" class="ast1" clip-rule="evenodd" fill="#a6193c" fill-rule="evenodd" stroke-width=".693"/><path id="apath233" d="M142.256 90.874c.624 0 1.179-.069 1.595-.277 1.664-.9 1.802-3.463 1.802-5.125 0-.9-.069-1.732-.208-2.494-.346-1.8-1.248-2.978-3.189-2.978-1.872 0-2.773 1.247-3.12 2.978-.139.693-.208 1.524-.208 2.494 0 1.593.139 4.294 1.872 5.125.416.208 1.04.277 1.456.277zm0 5.126c-1.664 0-3.12-.277-4.299-.831-1.178-.554-2.218-1.247-3.05-2.217a8.918 8.918 0 01-1.803-3.394c-.485-1.316-.624-2.632-.624-4.086 0-2.009.347-4.225 1.387-5.957.624-1.108 1.386-2.147 2.426-2.909 1.734-1.316 3.814-1.8 5.963-1.8 2.15 0 4.299.484 6.032 1.8 1.525 1.178 2.704 2.84 3.19 4.71.415 1.316.554 2.77.554 4.156 0 1.385-.139 2.77-.555 4.086-.346 1.247-1.04 2.425-1.802 3.394-.902.97-1.942 1.732-3.12 2.217-1.318.554-2.843.831-4.299.831z" class="ast1" clip-rule="evenodd" fill="#a6193c" fill-rule="evenodd" stroke-width=".693"/><path id="apath235" d="M118.475 43.498c.554-.139 1.11-.416 1.456-.693.832-.762 1.178-1.87 1.178-2.978 0-.624-.069-1.178-.346-1.663-.486-.97-1.664-1.662-2.496-1.8-.97-.208-1.872-.277-2.843-.277-.416 0-.901.069-1.317.069h-.07v7.619c1.456-.07 3.051.07 4.438-.277zm-4.368 13.16c.762.07 1.594.07 2.426.07.624 0 1.872-.14 2.496-.209 1.318-.277 2.496-.761 3.26-2.008.346-.554.415-1.385.415-2.009 0-1.731-.832-3.255-2.496-3.948-.97-.415-2.357-.554-3.467-.554h-2.634zm-3.328-24.45c2.357-.208 4.784-.416 7.141-.208 1.248.139 2.565.346 3.744.831 1.595.693 2.843 1.662 3.605 3.186.416.762.763 2.147.763 3.533 0 1.524-.416 3.117-1.456 4.294-.485.554-.901.97-1.525 1.385-.07.07-.139.07-.208.139.624.277 1.178.485 1.733.831 1.179.762 2.01 1.801 2.565 3.117.416.97.624 2.216.624 3.325 0 1.246-.277 2.77-.97 3.878-.694 1.178-1.456 1.94-2.566 2.702-2.288 1.524-5.477 1.87-8.18 1.87-2.358 0-4.577-.277-6.934-.554V32.485c.624-.139 1.11-.277 1.664-.277z" class="ast1" clip-rule="evenodd" fill="#a6193c" fill-rule="evenodd" stroke-width=".693"/><path id="apath237" d="M153.28 40.035c.693 0 1.317.138 2.01.207l.07.347c.07.415.208.9.208 1.593l.07.208.138-.139.693-.693c.624-.623 1.803-1.246 2.635-1.454.693-.277 1.595-.346 2.357-.346 2.011 0 4.022.554 5.408 2.077.555.693.971 1.594 1.318 2.633.277.97.416 2.147.416 3.463v12.675c-.832.139-1.595.277-2.427.277-.832 0-1.595-.138-2.427-.277V48.9c0-1.316-.069-3.878-1.594-4.432-.971-.485-2.219-.278-3.12.069-2.288.97-2.982 3.532-2.982 5.818v10.182c-.762.138-1.594.277-2.357.277-.832 0-1.664-.07-2.496-.277V40.242c.624-.069 1.317-.207 2.08-.207z" class="ast1" clip-rule="evenodd" fill="#a6193c" fill-rule="evenodd" stroke-width=".693"/><path id="apath239" d="M187.67 57.905c.207.692.207 1.454.346 2.147-.139.07-.208.07-.347.138-1.733.693-3.466.97-5.338.97-4.368 0-8.182-1.94-9.707-6.372-.416-1.247-.624-2.701-.624-4.294 0-2.078.416-4.156 1.456-6.026.901-1.732 2.496-3.187 4.299-3.88a9.692 9.692 0 012.01-.623c1.734-.346 3.536-.277 5.27 0 .97.139 1.872.416 2.704.762 0 .624 0 1.316-.208 1.94-.07.692-.416 1.385-.694 2.078a13.096 13.096 0 00-2.357-.624c-1.456-.208-3.19-.346-4.507.277-1.386.624-2.149 1.94-2.565 3.325a11.072 11.072 0 00-.347 2.701c0 1.178.14 2.217.416 2.979.763 2.424 2.843 3.394 5.2 3.394 1.456 0 2.912-.278 4.3-.832.207.693.484 1.247.692 1.94z" class="ast1" clip-rule="evenodd" fill="#a6193c" fill-rule="evenodd" stroke-width=".693"/><path id="apath241" d="M199.664 57.004c1.179 0 2.704-.485 3.467-1.662.762-1.108 1.178-2.77 1.178-4.918 0-2.147-.416-3.879-1.178-4.987-.763-1.108-1.872-1.593-3.467-1.593-1.525 0-2.843.762-3.397 1.593-.97 1.455-1.11 3.256-1.11 4.987 0 1.732.14 3.463 1.11 4.918.762 1.177 2.08 1.662 3.397 1.662zm0 4.087c-1.456 0-2.912-.277-4.23-.831-1.178-.485-2.218-1.316-3.05-2.286-.832-.97-1.387-2.216-1.803-3.394-.416-1.316-.554-2.77-.554-4.086 0-1.386.138-2.84.554-4.156.347-1.178.971-2.494 1.803-3.394.901-.97 1.803-1.801 3.05-2.355a10.962 10.962 0 014.23-.831c1.456 0 2.912.277 4.23.83 2.426 1.109 4.02 3.187 4.853 5.75.416 1.385.554 2.77.554 4.155 0 .762-.069 1.524-.138 2.217-.139 1.247-.555 2.632-1.179 3.74a8.043 8.043 0 01-2.427 2.84c-1.109.762-2.357 1.385-3.674 1.593-.694.139-1.456.208-2.219.208z" class="ast1" clip-rule="evenodd" fill="#a6193c" fill-rule="evenodd" stroke-width=".693"/><path id="apath243" d="M215.541 86.372c-2.08-1.039-2.912-2.84-2.912-5.056.07-3.048 1.942-5.264 4.854-6.234 1.525-.415 3.258-.485 4.853-.346 1.595.138 3.328.554 4.853 1.177 0 .9-.138 1.732-.416 2.563-.277.831-.554 1.593-.97 2.355-1.11-.415-2.496-.9-3.467-1.039-.832-.138-2.08-.138-2.843.277-.277.208-.416.416-.416.831 0 .555.347.762.832 1.04.278.069.486.207.832.276 1.04.347 2.08.555 3.19.97.901.346 1.941.9 2.565 1.662.485.485.763 1.109 1.04 1.732.277.762.347 1.593.347 2.424 0 .485-.07.97-.139 1.455-.277.97-.624 1.8-1.317 2.632-1.942 2.216-4.784 3.048-7.627 3.048-1.525 0-3.19-.139-4.645-.624l-1.872-.623c.069-.831.208-1.663.416-2.563.208-.831.554-1.8.97-2.563a32.48 32.48 0 002.774.9c1.386.347 3.328.347 4.23-.138.554-.277.9-.623.9-1.177 0-.97-.832-1.178-1.664-1.386-1.456-.554-2.98-.9-4.368-1.593z" class="ast1" clip-rule="evenodd" fill="#a6193c" fill-rule="evenodd" stroke-width=".693"/><path id="apath245" d="M236.55 75.152h3.674c.139.83.277 1.662.277 2.493 0 .9-.138 1.732-.277 2.632h-3.675v7.134c0 .554 0 1.108.139 1.663.485 1.108.901 1.454 2.15 1.454.831 0 1.663-.208 2.426-.346.277.9.624 1.8.624 2.77.139.762 0 1.593-.07 2.355l-.346.07c-.624.138-1.179.277-1.803.277-2.426.346-5.546.138-7.488-1.663-1.317-1.177-2.01-3.047-2.01-5.54l-.07-19.395c1.04-.208 2.08-.277 3.12-.277 1.11 0 2.22.07 3.26.277v6.096z" class="ast1" clip-rule="evenodd" fill="#a6193c" fill-rule="evenodd" stroke-width=".693"/><path id="apath247" d="M159.59 75.152c.277.623.415 1.385.554 2.077l.277-.277c.763-.762 1.595-1.523 2.635-1.8 1.317-.416 2.496-.416 3.883 0 .138.761.208 1.523.208 2.285 0 1.178-.07 2.286-.416 3.394-1.04-.208-2.288-.208-3.259-.07-.763.14-1.387.624-1.803 1.178-.762 1.178-.9 2.494-.9 3.88v9.558c-1.04.207-2.15.277-3.19.277-1.11 0-2.15-.139-3.259-.277V75.29c1.803-.416 4.021-.485 5.27-.138z" class="ast1" clip-rule="evenodd" fill="#a6193c" fill-rule="evenodd" stroke-width=".693"/><path id="apath249" d="M111.957 67.325c.902 0 1.803.069 2.635.277l9.568 15.792V67.602c1.04-.139 2.08-.277 3.12-.277.97 0 1.872.138 2.773.277v27.844c-.9.208-1.802.346-2.773.346-.901 0-1.733-.138-2.635-.277l-9.706-15.723v15.654c-.97.208-1.942.346-2.982.346-.97 0-1.94-.138-2.912-.346V67.67c1.04-.208 1.942-.346 2.912-.346z" class="ast1" clip-rule="evenodd" fill="#a6193c" fill-rule="evenodd" stroke-width=".693"/><path id="apath251" d="M253.675 57.004c1.178 0 2.704-.485 3.466-1.662.763-1.108 1.18-2.77 1.18-4.918 0-2.147-.417-3.879-1.18-4.987-.762-1.108-1.872-1.593-3.466-1.593-1.526 0-2.843.762-3.398 1.593-.97 1.455-1.109 3.256-1.109 4.987 0 1.732.139 3.463 1.11 4.918.762 1.177 2.08 1.662 3.397 1.662zm0 4.087c-1.456 0-2.912-.277-4.23-.831-1.178-.485-2.218-1.316-3.05-2.286-.832-.97-1.387-2.216-1.803-3.394-.416-1.316-.555-2.77-.555-4.086 0-1.386.139-2.84.555-4.156.347-1.178.97-2.494 1.803-3.394.901-.97 1.802-1.801 3.05-2.355a10.963 10.963 0 014.23-.831c1.456 0 2.912.277 4.229.83 2.427 1.109 4.021 3.187 4.853 5.75.416 1.385.555 2.77.555 4.155 0 .762-.07 1.524-.139 2.217-.138 1.247-.554 2.632-1.178 3.74a8.043 8.043 0 01-2.427 2.84c-1.11.762-2.357 1.385-3.675 1.593-.693.139-1.386.208-2.218.208z" class="ast1" clip-rule="evenodd" fill="#a6193c" fill-rule="evenodd" stroke-width=".693"/><path id="apath253" d="M235.51 44.329c-.625-.208-1.387-.346-2.08-.416-1.595-.138-3.12.07-4.369 1.109-.97.762-1.456 1.731-1.733 2.909-.277.9-.347 1.87-.347 2.84 0 1.593.347 3.601 1.595 4.71 1.11 1.038 2.704 1.385 4.16 1.385.208 0 1.803-.07 2.773-.277zm2.426-12.745c.832 0 1.595.139 2.357.277v28.122c-2.218.692-3.674.9-5.616 1.039-1.386.069-2.842.138-4.229-.07-1.941-.277-3.883-.9-5.408-2.216-1.04-.9-1.803-2.009-2.357-3.255-.624-1.524-.832-3.117-.832-4.71 0-1.524.208-3.048.762-4.503a11.318 11.318 0 012.08-3.532c.902-.97 2.011-1.732 3.26-2.286 1.386-.554 2.772-.762 4.228-.831.347 0 2.08.07 3.26.346v-8.104c.831-.138 1.663-.277 2.495-.277z" class="ast1" clip-rule="evenodd" fill="#a6193c" fill-rule="evenodd" stroke-width=".693"/></svg>