<svg width="593" height="393" viewBox="0 0 593 393" fill="none" xmlns="http://www.w3.org/2000/svg">
<path d="M366.144 42.4108C339.469 42.4108 317.706 64.0395 317.706 90.4947C317.706 116.927 339.469 138.511 366.144 138.511C392.819 138.511 414.558 116.927 414.558 90.4718C414.528 77.7405 409.415 65.5391 400.338 56.5367C391.26 47.5342 378.958 42.4638 366.121 42.4337L366.144 42.4108ZM366.144 54.4773C386.253 54.4773 402.414 70.5508 402.414 90.4947C402.414 110.416 386.253 126.466 366.144 126.466C346.034 126.466 329.873 110.416 329.873 90.4947C329.873 70.5508 346.034 54.4773 366.144 54.4773ZM365.409 0.0415844C363.914 0.216081 362.537 0.933682 361.545 2.05649C360.553 3.17929 360.016 4.6275 360.037 6.12034V30.2533C360.037 31.8534 360.678 33.3879 361.819 34.5193C362.96 35.6508 364.507 36.2862 366.121 36.2862C367.734 36.2862 369.281 35.6508 370.422 34.5193C371.563 33.3879 372.204 31.8534 372.204 30.2533V6.12034C372.217 5.26117 372.044 4.40878 371.698 3.62116C371.351 2.83354 370.839 2.12828 370.196 1.55276C369.553 0.977237 368.793 0.54479 367.967 0.284067C367.142 0.0233449 366.27 -0.0590214 365.409 0.0415844ZM428.056 84.4389C426.443 84.4389 424.896 85.0743 423.755 86.2058C422.614 87.3372 421.973 88.8717 421.973 90.4718C421.973 92.0719 422.614 93.6064 423.755 94.7378C424.896 95.8693 426.443 96.5054 428.056 96.5054H452.367C453.98 96.5054 455.528 95.8693 456.668 94.7378C457.809 93.6064 458.45 92.0719 458.45 90.4718C458.45 88.8717 457.809 87.3372 456.668 86.2058C455.528 85.0743 453.98 84.4389 452.367 84.4389H428.056ZM408.406 126.99C407.257 127.108 406.165 127.549 405.259 128.26C404.353 128.97 403.67 129.922 403.289 131.004C402.909 132.086 402.847 133.253 403.111 134.369C403.374 135.484 403.953 136.502 404.779 137.304L421.95 154.333C422.498 154.954 423.168 155.456 423.919 155.81C424.67 156.164 425.487 156.362 426.318 156.39C427.149 156.419 427.977 156.278 428.751 155.976C429.525 155.675 430.229 155.22 430.818 154.638C431.408 154.056 431.871 153.361 432.179 152.595C432.487 151.829 432.633 151.008 432.609 150.184C432.585 149.359 432.39 148.549 432.038 147.802C431.685 147.055 431.181 146.388 430.559 145.841L413.387 128.811C412.75 128.154 411.97 127.649 411.108 127.333C410.245 127.018 409.321 126.901 408.406 126.99ZM305.333 24.7436C304.179 24.8582 303.082 25.2972 302.172 26.0095C301.261 26.7218 300.575 27.6774 300.194 28.7637C299.812 29.8499 299.752 31.0214 300.02 32.1404C300.288 33.2594 300.873 34.2797 301.706 35.08L318.877 52.1094C319.425 52.7301 320.095 53.2328 320.846 53.5866C321.597 53.9403 322.414 54.1375 323.245 54.166C324.076 54.1946 324.904 54.054 325.678 53.7526C326.452 53.4513 327.156 52.9961 327.745 52.4145C328.335 51.8328 328.798 51.1372 329.106 50.3711C329.414 49.605 329.56 48.7845 329.536 47.9601C329.512 47.1357 329.317 46.3246 328.965 45.5777C328.612 44.8308 328.109 44.1641 327.486 43.6177L310.314 26.5876C309.677 25.9303 308.897 25.4252 308.035 25.1097C307.172 24.7943 306.248 24.677 305.333 24.7665V24.7436ZM426.128 24.7436C424.546 24.796 423.048 25.4574 421.95 26.5876L404.779 43.6177C404.156 44.1641 403.653 44.8308 403.3 45.5777C402.947 46.3246 402.753 47.1357 402.728 47.9601C402.704 48.7845 402.85 49.605 403.158 50.3711C403.466 51.1372 403.929 51.8328 404.519 52.4145C405.109 52.9961 405.812 53.4513 406.586 53.7526C407.36 54.054 408.189 54.1946 409.02 54.166C409.851 54.1375 410.667 53.9403 411.418 53.5866C412.17 53.2328 412.84 52.7301 413.387 52.1094L430.559 35.08C431.423 34.2294 432.009 33.1412 432.243 31.9562C432.477 30.7713 432.347 29.5437 431.869 28.4329C431.392 27.3222 430.59 26.379 429.566 25.7253C428.543 25.0716 427.345 24.7378 426.128 24.7665V24.7436Z" fill="#FBBC05"/>
<path d="M202.573 85.3608C202.573 79.8379 207.051 75.3608 212.573 75.3608H274.323C279.846 75.3608 284.323 79.838 284.323 85.3608V146.394C284.323 151.917 279.846 156.394 274.323 156.394H212.573C207.051 156.394 202.573 151.917 202.573 146.394V85.3608Z" fill="#001A51"/>
<path d="M293.316 85.3608C293.316 79.8379 297.793 75.3608 303.316 75.3608H365.065C370.588 75.3608 375.065 79.838 375.065 85.3608V146.394C375.065 151.917 370.588 156.394 365.065 156.394H303.316C297.793 156.394 293.316 151.917 293.316 146.394V85.3608Z" fill="#001A51"/>
<path d="M293.316 175.308C293.316 169.785 297.793 165.308 303.316 165.308H365.065C370.588 165.308 375.065 169.785 375.065 175.308V236.341C375.065 241.864 370.588 246.341 365.065 246.341H303.316C297.793 246.341 293.316 241.864 293.316 236.341V175.308Z" fill="#001A51"/>
<path d="M202.573 175.287C202.573 169.764 207.051 165.287 212.573 165.287H274.422C279.945 165.287 284.422 169.764 284.422 175.287V236.341C284.422 241.864 279.945 246.341 274.422 246.341H212.573C207.051 246.341 202.573 241.864 202.573 236.341V175.287Z" fill="#001A51"/>
<path d="M301.11 165.287H301.904V246.341H301.11V165.287Z" fill="white" fill-opacity="0.2"/>
<path d="M310.646 165.287H311.44V246.341H310.646V165.287Z" fill="white" fill-opacity="0.2"/>
<path d="M320.181 165.287H320.976V246.341H320.181V165.287Z" fill="white" fill-opacity="0.2"/>
<path d="M329.717 165.287H330.512V246.341H329.717V165.287Z" fill="white" fill-opacity="0.2"/>
<path d="M339.253 165.287H340.047V246.341H339.253V165.287Z" fill="white" fill-opacity="0.2"/>
<path d="M348.789 165.287H349.583V246.341H348.789V165.287Z" fill="white" fill-opacity="0.2"/>
<path d="M357.53 165.287H358.324V246.341H357.53V165.287Z" fill="white" fill-opacity="0.2"/>
<path d="M366.271 165.287H367.066V246.341H366.271V165.287Z" fill="white" fill-opacity="0.2"/>
<path d="M210.52 165.287H211.315V246.341H210.52V165.287Z" fill="white" fill-opacity="0.2"/>
<path d="M220.056 165.287H220.85V246.341H220.056V165.287Z" fill="white" fill-opacity="0.2"/>
<path d="M229.591 165.287H230.386V246.341H229.591V165.287Z" fill="white" fill-opacity="0.2"/>
<path d="M239.127 165.287H239.922V246.341H239.127V165.287Z" fill="white" fill-opacity="0.2"/>
<path d="M248.663 165.287H249.458V246.341H248.663V165.287Z" fill="white" fill-opacity="0.2"/>
<path d="M258.199 165.287H258.993V246.341H258.199V165.287Z" fill="white" fill-opacity="0.2"/>
<path d="M266.94 165.287H267.735V246.341H266.94V165.287Z" fill="white" fill-opacity="0.2"/>
<path d="M275.681 165.287H276.476V246.341H275.681V165.287Z" fill="white" fill-opacity="0.2"/>
<path d="M301.904 75.4916H302.699V156.546H301.904V75.4916Z" fill="white" fill-opacity="0.2"/>
<path d="M311.44 75.4916H312.235V156.546H311.44V75.4916Z" fill="white" fill-opacity="0.2"/>
<path d="M320.976 75.4916H321.771V156.546H320.976V75.4916Z" fill="white" fill-opacity="0.2"/>
<path d="M330.512 75.4916H331.306V156.546H330.512V75.4916Z" fill="white" fill-opacity="0.2"/>
<path d="M340.047 75.4916H340.842V156.546H340.047V75.4916Z" fill="white" fill-opacity="0.2"/>
<path d="M349.583 75.4916H350.378V156.546H349.583V75.4916Z" fill="white" fill-opacity="0.2"/>
<path d="M358.324 75.4916H359.119V156.546H358.324V75.4916Z" fill="white" fill-opacity="0.2"/>
<path d="M367.066 75.4916H367.86V156.546H367.066V75.4916Z" fill="white" fill-opacity="0.2"/>
<path d="M210.52 75.4916H211.315V156.546H210.52V75.4916Z" fill="white" fill-opacity="0.2"/>
<path d="M220.056 75.4916H220.85V156.546H220.056V75.4916Z" fill="white" fill-opacity="0.2"/>
<path d="M229.591 75.4916H230.386V156.546H229.591V75.4916Z" fill="white" fill-opacity="0.2"/>
<path d="M239.127 75.4916H239.922V156.546H239.127V75.4916Z" fill="white" fill-opacity="0.2"/>
<path d="M248.663 75.4916H249.458V156.546H248.663V75.4916Z" fill="white" fill-opacity="0.2"/>
<path d="M258.199 75.4916H258.993V156.546H258.199V75.4916Z" fill="white" fill-opacity="0.2"/>
<path d="M266.94 75.4916H267.735V156.546H266.94V75.4916Z" fill="white" fill-opacity="0.2"/>
<path d="M275.681 75.4916H276.476V156.546H275.681V75.4916Z" fill="white" fill-opacity="0.2"/>
<path d="M284.422 180.385V181.18L202.573 181.18V180.385H284.422Z" fill="white" fill-opacity="0.2"/>
<path d="M284.422 205.019V205.814L202.573 205.814V205.019H284.422Z" fill="white" fill-opacity="0.2"/>
<path d="M284.422 229.653V230.448L202.573 230.448V229.653H284.422Z" fill="white" fill-opacity="0.2"/>
<path d="M375.012 180.385V181.18L293.163 181.18V180.385H375.012Z" fill="white" fill-opacity="0.2"/>
<path d="M375.012 205.019V205.814L293.163 205.814V205.019H375.012Z" fill="white" fill-opacity="0.2"/>
<path d="M375.012 229.653V230.448L293.163 230.448V229.653H375.012Z" fill="white" fill-opacity="0.2"/>
<path d="M375.012 90.5899V91.3845L293.163 91.3845V90.5899H375.012Z" fill="white" fill-opacity="0.2"/>
<path d="M375.012 115.224V116.019H293.163V115.224H375.012Z" fill="white" fill-opacity="0.2"/>
<path d="M375.012 139.858V140.653H293.163V139.858H375.012Z" fill="white" fill-opacity="0.2"/>
<path d="M284.422 90.5899V91.3845L202.573 91.3845V90.5899H284.422Z" fill="white" fill-opacity="0.2"/>
<path d="M284.422 115.224V116.019H202.573V115.224H284.422Z" fill="white" fill-opacity="0.2"/>
<path d="M284.422 139.858V140.653H202.573V139.858H284.422Z" fill="white" fill-opacity="0.2"/>
<path d="M225.564 136.958L248.106 107.42L272.099 143.857L293.872 115.325L340.312 222.997L292.055 168.032L269.968 196.975L225.564 136.958Z" fill="#FBBC05"/>
<path d="M1.52721 298.259H17.1264V334.644H42.0427V347.152H1.52721V298.259Z" fill="#FBBC05"/>
<path d="M90.1549 327.467C90.1549 334.147 88.0609 339.24 83.8729 342.746C79.6849 346.252 73.7322 348.005 66.015 348.005C58.2977 348.005 52.3216 346.252 48.0865 342.746C43.8985 339.24 41.8045 334.147 41.8045 327.467V298.259H57.4037V327.254C57.4037 330.001 58.1331 332.204 59.5918 333.863C61.0505 335.473 63.1681 336.279 65.9444 336.279C68.7207 336.279 70.8383 335.45 72.297 333.792C73.8028 332.133 74.5557 329.954 74.5557 327.254V298.259H90.1549V327.467Z" fill="#FBBC05"/>
<path d="M137.376 347.152V329.528C137.376 327.348 137.447 325.122 137.588 322.848C137.776 320.526 137.965 318.584 138.153 317.02C138.341 315.457 138.459 314.462 138.506 314.035H138.223L129.259 347.152H117.048L108.013 314.107H107.731C107.778 314.533 107.896 315.528 108.084 317.091C108.319 318.607 108.531 320.526 108.719 322.848C108.907 325.122 109.001 327.348 109.001 329.528V347.152H94.6728V298.259H116.695L124.036 326.472H124.318L131.589 298.259H152.834V347.152H137.376Z" fill="#FBBC05"/>
<path d="M158.081 347.152V298.259H173.681V347.152H158.081Z" fill="#FBBC05"/>
<path d="M214.596 347.152L194.198 323.416V347.152H179.869V298.259H193.492L213.891 322.35V298.259H228.219V347.152H214.596Z" fill="#FBBC05"/>
<path d="M265.576 347.152L263.529 340.258H246.518L244.471 347.152H228.519L246.235 298.259H264.376L282.092 347.152H265.576ZM249.765 329.314H260.282L255.2 311.904H254.917L249.765 329.314Z" fill="#FBBC05"/>
<path d="M329.124 313.254C329.124 316.238 328.324 318.939 326.724 321.355C325.124 323.771 322.795 325.548 319.736 326.685L330.536 347.152H313.031L304.42 329.314H298.632V347.152H283.033V298.259H312.749C316.231 298.259 319.195 298.946 321.642 300.32C324.136 301.646 325.995 303.47 327.218 305.792C328.489 308.066 329.124 310.553 329.124 313.254ZM313.243 313.893C313.243 312.614 312.819 311.548 311.972 310.695C311.125 309.843 310.09 309.416 308.866 309.416H298.632V318.441H308.866C310.09 318.441 311.125 318.015 311.972 317.162C312.819 316.262 313.243 315.172 313.243 313.893Z" fill="#FBBC05"/>
<path d="M371.992 297.406C378.204 297.406 383.309 298.685 387.309 301.244C391.309 303.755 393.356 307.497 393.45 312.472V313.325H378.839V313.041C378.839 311.619 378.321 310.435 377.286 309.487C376.251 308.54 374.674 308.066 372.557 308.066C370.486 308.066 368.886 308.374 367.757 308.99C366.675 309.606 366.134 310.364 366.134 311.264C366.134 312.543 366.887 313.491 368.392 314.107C369.898 314.722 372.322 315.362 375.663 316.025C379.568 316.831 382.768 317.683 385.262 318.584C387.803 319.436 390.015 320.858 391.897 322.848C393.779 324.837 394.744 327.538 394.791 330.949C394.791 336.729 392.838 341.017 388.932 343.812C385.074 346.607 379.898 348.005 373.404 348.005C365.828 348.005 359.922 346.725 355.687 344.167C351.499 341.609 349.405 337.084 349.405 330.594H364.157C364.157 333.057 364.793 334.715 366.063 335.568C367.334 336.374 369.31 336.776 371.992 336.776C373.969 336.776 375.592 336.563 376.863 336.137C378.18 335.71 378.839 334.834 378.839 333.507C378.839 332.323 378.11 331.446 376.651 330.878C375.239 330.262 372.91 329.622 369.663 328.959C365.71 328.106 362.44 327.23 359.852 326.33C357.264 325.382 355.005 323.842 353.076 321.71C351.146 319.579 350.182 316.689 350.182 313.041C350.182 307.687 352.229 303.755 356.322 301.244C360.463 298.685 365.687 297.406 371.992 297.406Z" fill="#001A51"/>
<path d="M421.732 297.406C430.108 297.406 436.578 299.562 441.142 303.873C445.707 308.184 447.989 314.462 447.989 322.705C447.989 330.949 445.707 337.226 441.142 341.538C436.578 345.849 430.108 348.005 421.732 348.005C413.356 348.005 406.885 345.873 402.321 341.609C397.803 337.297 395.545 330.996 395.545 322.705C395.545 314.414 397.803 308.137 402.321 303.873C406.885 299.562 413.356 297.406 421.732 297.406ZM421.732 309.132C418.391 309.132 415.85 310.151 414.109 312.188C412.367 314.225 411.497 316.973 411.497 320.431V324.979C411.497 328.438 412.367 331.186 414.109 333.223C415.85 335.26 418.391 336.279 421.732 336.279C425.073 336.279 427.614 335.26 429.355 333.223C431.143 331.186 432.037 328.438 432.037 324.979V320.431C432.037 316.973 431.143 314.225 429.355 312.188C427.614 310.151 425.073 309.132 421.732 309.132Z" fill="#001A51"/>
<path d="M451.448 298.259H467.047V334.644H491.964V347.152H451.448V298.259Z" fill="#001A51"/>
<path d="M526.126 347.152L524.079 340.258H507.068L505.021 347.152H489.069L506.786 298.259H524.926L542.643 347.152H526.126ZM510.315 329.314H520.832L515.75 311.904H515.468L510.315 329.314Z" fill="#001A51"/>
<path d="M589.675 313.254C589.675 316.238 588.875 318.939 587.275 321.355C585.675 323.771 583.346 325.548 580.287 326.685L591.086 347.152H573.581L564.97 329.314H559.182V347.152H543.583V298.259H573.299C576.781 298.259 579.746 298.946 582.193 300.32C584.687 301.646 586.546 303.47 587.769 305.792C589.04 308.066 589.675 310.553 589.675 313.254ZM573.793 313.893C573.793 312.614 573.37 311.548 572.523 310.695C571.676 309.843 570.64 309.416 569.417 309.416H559.182V318.441H569.417C570.64 318.441 571.676 318.015 572.523 317.162C573.37 316.262 573.793 315.172 573.793 313.893Z" fill="#001A51"/>
<path d="M18.0503 386.994L15.5515 380.599H5.58737L3.07305 386.994H0L8.92427 365.125H12.2922L21.0768 386.994H18.0503ZM11.8576 371.07C11.6921 370.656 11.5317 370.237 11.3765 369.812C11.2316 369.388 11.1023 369.005 10.9885 368.664C10.8747 368.312 10.7764 368.022 10.6936 367.795C10.6212 367.557 10.5798 367.412 10.5694 367.36C10.5487 367.412 10.5022 367.557 10.4298 367.795C10.3573 368.033 10.259 368.328 10.1349 368.679C10.021 369.031 9.88654 369.419 9.73133 369.843C9.58648 370.268 9.43645 370.687 9.28124 371.101L6.48756 378.287H14.6668L11.8576 371.07Z" fill="#001A51"/>
<path d="M44.2905 386.994L38.61 377.914H31.7965V386.994H28.8321V365.125H39.1221C40.3638 365.125 41.4606 365.27 42.4125 365.56C43.3747 365.839 44.1818 366.248 44.8337 366.786C45.4855 367.324 45.9822 367.981 46.3236 368.757C46.6651 369.533 46.8358 370.407 46.8358 371.38C46.8358 372.073 46.7323 372.756 46.5254 373.429C46.3288 374.101 46.0132 374.717 45.5787 375.276C45.1441 375.834 44.5905 376.315 43.918 376.719C43.2454 377.123 42.4383 377.407 41.4968 377.573L47.705 386.994H44.2905ZM43.8559 371.411C43.8559 370.749 43.7421 370.175 43.5144 369.688C43.2868 369.202 42.9557 368.798 42.5211 368.478C42.0865 368.147 41.5588 367.903 40.938 367.748C40.3172 367.583 39.6136 367.5 38.8272 367.5H31.7965V375.571H38.9514C39.7999 375.571 40.5345 375.467 41.1553 375.26C41.7761 375.043 42.2831 374.748 42.6763 374.375C43.0799 374.003 43.3747 373.563 43.561 373.056C43.7576 372.549 43.8559 372.001 43.8559 371.411Z" fill="#001A51"/>
<path d="M77.4838 375.959C77.4838 377.5 77.282 378.913 76.8785 380.196C76.4853 381.468 75.911 382.586 75.1557 383.548C74.4107 384.51 73.4898 385.297 72.3931 385.907C71.3066 386.507 70.0702 386.9 68.6837 387.087C68.9009 387.749 69.1441 388.313 69.4131 388.778C69.6925 389.244 70.0081 389.622 70.3599 389.911C70.7117 390.212 71.0997 390.429 71.5239 390.563C71.9585 390.708 72.4396 390.781 72.9673 390.781C73.257 390.781 73.5674 390.76 73.8985 390.719C74.2296 390.677 74.5142 390.631 74.7522 390.579V392.659C74.359 392.752 73.9244 392.829 73.4484 392.891C72.9828 392.964 72.4965 393 71.9895 393C71.0997 393 70.3237 392.865 69.6615 392.596C68.9992 392.338 68.4146 391.96 67.9076 391.463C67.411 390.977 66.9816 390.377 66.6194 389.663C66.2573 388.949 65.9365 388.142 65.6572 387.242C64.0224 387.159 62.5841 386.823 61.3425 386.233C60.1112 385.633 59.0817 384.836 58.2539 383.843C57.4365 382.839 56.8209 381.67 56.407 380.335C55.9931 378.99 55.7862 377.531 55.7862 375.959C55.7862 374.251 56.0241 372.71 56.5001 371.333C56.9761 369.957 57.6745 368.788 58.5954 367.826C59.5162 366.853 60.6492 366.108 61.9943 365.591C63.3498 365.063 64.9018 364.799 66.6505 364.799C68.3888 364.799 69.9305 365.063 71.2756 365.591C72.631 366.119 73.764 366.869 74.6746 367.841C75.5954 368.814 76.2939 369.988 76.7698 371.364C77.2458 372.741 77.4838 374.272 77.4838 375.959ZM74.4573 375.959C74.4573 374.644 74.2865 373.449 73.9451 372.373C73.614 371.297 73.1173 370.376 72.4551 369.611C71.8033 368.845 70.991 368.255 70.0184 367.841C69.0458 367.427 67.9232 367.221 66.6505 367.221C65.3468 367.221 64.2034 367.427 63.2205 367.841C62.2375 368.255 61.4149 368.845 60.7527 369.611C60.1008 370.376 59.6094 371.297 59.2783 372.373C58.9575 373.449 58.7971 374.644 58.7971 375.959C58.7971 377.273 58.9627 378.478 59.2938 379.575C59.6352 380.661 60.1319 381.603 60.7837 382.4C61.446 383.186 62.2634 383.802 63.236 384.246C64.2189 384.681 65.3468 384.898 66.6194 384.898C67.9852 384.898 69.1596 384.676 70.1426 384.231C71.1359 383.786 71.9481 383.17 72.5793 382.384C73.2208 381.587 73.6916 380.641 73.9917 379.544C74.3021 378.447 74.4573 377.252 74.4573 375.959Z" fill="#001A51"/>
<path d="M95.4515 387.304C94.2513 387.304 93.1131 387.144 92.037 386.823C90.9609 386.502 90.0142 386.005 89.1968 385.333C88.3897 384.65 87.7482 383.791 87.2722 382.757C86.7963 381.711 86.5583 380.475 86.5583 379.047V365.125H89.5227V378.799C89.5227 379.906 89.6675 380.847 89.9573 381.624C90.2573 382.389 90.6712 383.015 91.1989 383.501C91.7266 383.988 92.3474 384.345 93.0613 384.572C93.7856 384.79 94.5772 384.898 95.436 384.898C96.2844 384.898 97.0863 384.785 97.8417 384.557C98.597 384.329 99.2592 383.967 99.8283 383.47C100.397 382.974 100.842 382.327 101.163 381.53C101.494 380.723 101.66 379.746 101.66 378.597V365.125H104.609V378.768C104.609 380.227 104.365 381.494 103.879 382.57C103.403 383.636 102.751 384.521 101.924 385.224C101.096 385.928 100.123 386.45 99.0057 386.792C97.8986 387.133 96.7138 387.304 95.4515 387.304Z" fill="#001A51"/>
<path d="M115.095 386.994V365.125H118.06V386.994H115.095Z" fill="#001A51"/>
<path d="M137.269 367.546V386.994H134.32V367.546H126.808V365.125H144.781V367.546H137.269Z" fill="#001A51"/>
<path d="M153.219 386.994V365.125H169.811V367.546H156.184V374.562H168.879V376.952H156.184V384.572H170.447V386.994H153.219Z" fill="#001A51"/>
<path d="M188.073 367.546V386.994H185.124V367.546H177.613V365.125H195.585V367.546H188.073Z" fill="#001A51"/>
<path d="M212.761 387.304C211.561 387.304 210.423 387.144 209.347 386.823C208.271 386.502 207.324 386.005 206.507 385.333C205.7 384.65 205.058 383.791 204.582 382.757C204.106 381.711 203.868 380.475 203.868 379.047V365.125H206.833V378.799C206.833 379.906 206.977 380.847 207.267 381.624C207.567 382.389 207.981 383.015 208.509 383.501C209.037 383.988 209.657 384.345 210.371 384.572C211.096 384.79 211.887 384.898 212.746 384.898C213.594 384.898 214.396 384.785 215.152 384.557C215.907 384.329 216.569 383.967 217.138 383.47C217.707 382.974 218.152 382.327 218.473 381.53C218.804 380.723 218.97 379.746 218.97 378.597V365.125H221.919V378.768C221.919 380.227 221.675 381.494 221.189 382.57C220.713 383.636 220.061 384.521 219.233 385.224C218.406 385.928 217.433 386.45 216.316 386.792C215.208 387.133 214.024 387.304 212.761 387.304Z" fill="#001A51"/>
<path d="M247.538 386.994L241.857 377.914H235.044V386.994H232.079V365.125H242.37C243.611 365.125 244.708 365.27 245.66 365.56C246.622 365.839 247.429 366.248 248.081 366.786C248.733 367.324 249.23 367.981 249.571 368.757C249.912 369.533 250.083 370.407 250.083 371.38C250.083 372.073 249.98 372.756 249.773 373.429C249.576 374.101 249.261 374.717 248.826 375.276C248.391 375.834 247.838 376.315 247.165 376.719C246.493 377.123 245.686 377.407 244.744 377.573L250.952 386.994H247.538ZM247.103 371.411C247.103 370.749 246.989 370.175 246.762 369.688C246.534 369.202 246.203 368.798 245.768 368.478C245.334 368.147 244.806 367.903 244.185 367.748C243.565 367.583 242.861 367.5 242.075 367.5H235.044V375.571H242.199C243.047 375.571 243.782 375.467 244.403 375.26C245.023 375.043 245.531 374.748 245.924 374.375C246.327 374.003 246.622 373.563 246.808 373.056C247.005 372.549 247.103 372.001 247.103 371.411Z" fill="#001A51"/>
<path d="M275.64 386.994L273.142 380.599H263.177L260.663 386.994H257.59L266.514 365.125H269.882L278.667 386.994H275.64ZM269.448 371.07C269.282 370.656 269.122 370.237 268.967 369.812C268.822 369.388 268.692 369.005 268.579 368.664C268.465 368.312 268.366 368.022 268.284 367.795C268.211 367.557 268.17 367.412 268.16 367.36C268.139 367.412 268.092 367.557 268.02 367.795C267.947 368.033 267.849 368.328 267.725 368.679C267.611 369.031 267.477 369.419 267.321 369.843C267.177 370.268 267.027 370.687 266.871 371.101L264.078 378.287H272.257L269.448 371.07Z" fill="#001A51"/>
<path d="M314.494 387.18C313.5 387.18 312.631 387.009 311.886 386.668C311.141 386.326 310.469 385.84 309.869 385.209C309.558 385.478 309.206 385.736 308.813 385.985C308.42 386.233 307.98 386.456 307.494 386.652C307.018 386.849 306.496 387.004 305.926 387.118C305.368 387.242 304.757 387.304 304.095 387.304C302.884 387.304 301.834 387.149 300.944 386.838C300.065 386.528 299.341 386.104 298.771 385.566C298.202 385.017 297.778 384.376 297.499 383.641C297.23 382.896 297.095 382.094 297.095 381.236C297.095 380.418 297.225 379.678 297.483 379.016C297.752 378.343 298.12 377.738 298.585 377.2C299.061 376.652 299.625 376.165 300.277 375.741C300.929 375.307 301.643 374.919 302.419 374.577C302.233 374.225 302.062 373.853 301.907 373.46C301.762 373.056 301.632 372.653 301.519 372.249C301.405 371.846 301.317 371.442 301.255 371.039C301.193 370.635 301.162 370.252 301.162 369.89C301.162 369.207 301.265 368.571 301.472 367.981C301.679 367.381 302 366.864 302.434 366.429C302.879 365.984 303.443 365.637 304.126 365.389C304.819 365.13 305.647 365.001 306.609 365.001C307.365 365.001 308.058 365.099 308.689 365.296C309.331 365.493 309.884 365.777 310.35 366.15C310.815 366.522 311.178 366.983 311.436 367.531C311.695 368.079 311.824 368.705 311.824 369.409C311.824 370.185 311.653 370.878 311.312 371.489C310.971 372.089 310.51 372.627 309.931 373.103C309.351 373.579 308.679 374.013 307.913 374.406C307.147 374.789 306.335 375.151 305.476 375.493C306.118 376.672 306.816 377.785 307.572 378.83C308.327 379.865 309.144 380.884 310.024 381.887C310.655 380.956 311.178 379.978 311.591 378.954C312.016 377.919 312.378 376.776 312.678 375.524L314.928 376.191C314.566 377.63 314.106 378.938 313.547 380.118C312.999 381.287 312.362 382.405 311.638 383.47C312.186 384.029 312.735 384.422 313.283 384.65C313.832 384.878 314.359 384.991 314.866 384.991C315.197 384.991 315.513 384.976 315.813 384.945C316.123 384.903 316.413 384.836 316.682 384.743V386.838C316.392 386.952 316.051 387.035 315.658 387.087C315.275 387.149 314.887 387.18 314.494 387.18ZM309.465 369.409C309.465 369.026 309.393 368.679 309.248 368.369C309.113 368.059 308.922 367.795 308.674 367.577C308.425 367.35 308.12 367.179 307.758 367.065C307.406 366.941 307.013 366.879 306.578 366.879C305.585 366.879 304.83 367.148 304.312 367.686C303.795 368.214 303.536 368.948 303.536 369.89C303.536 370.501 303.629 371.142 303.816 371.815C304.012 372.477 304.255 373.098 304.545 373.677C305.218 373.408 305.854 373.134 306.454 372.854C307.054 372.565 307.577 372.254 308.022 371.923C308.467 371.582 308.818 371.209 309.077 370.806C309.336 370.392 309.465 369.926 309.465 369.409ZM308.317 383.626C307.396 382.539 306.511 381.401 305.663 380.211C304.814 379.021 304.048 377.795 303.366 376.533C302.196 377.029 301.291 377.661 300.649 378.426C300.018 379.192 299.703 380.118 299.703 381.204C299.703 381.774 299.791 382.306 299.967 382.803C300.153 383.289 300.432 383.719 300.805 384.091C301.177 384.453 301.643 384.743 302.202 384.96C302.771 385.167 303.433 385.271 304.188 385.271C304.643 385.271 305.073 385.224 305.476 385.131C305.89 385.028 306.273 384.898 306.625 384.743C306.977 384.588 307.292 384.412 307.572 384.215C307.861 384.019 308.11 383.822 308.317 383.626Z" fill="#001A51"/>
<path d="M338.804 386.994V365.125H355.396V367.546H341.769V374.562H354.465V376.952H341.769V384.572H356.032V386.994H338.804Z" fill="#001A51"/>
<path d="M379.277 386.994L367.574 368.369C367.595 368.876 367.621 369.378 367.652 369.875C367.673 370.299 367.688 370.749 367.699 371.225C367.719 371.69 367.73 372.104 367.73 372.466V386.994H365.091V365.125H368.537L380.363 383.874C380.363 383.874 380.332 383.367 380.27 382.353C380.249 381.918 380.229 381.448 380.208 380.941C380.187 380.423 380.177 379.932 380.177 379.466V365.125H382.846V386.994H379.277Z" fill="#001A51"/>
<path d="M392.138 375.959C392.138 374.251 392.366 372.71 392.821 371.333C393.287 369.957 393.975 368.788 394.885 367.826C395.806 366.853 396.944 366.108 398.3 365.591C399.655 365.063 401.228 364.799 403.018 364.799C404.363 364.799 405.543 364.918 406.557 365.156C407.571 365.394 408.45 365.736 409.195 366.181C409.94 366.626 410.571 367.169 411.089 367.81C411.606 368.441 412.046 369.155 412.408 369.952L409.583 370.79C409.314 370.252 408.988 369.766 408.606 369.331C408.233 368.886 407.778 368.509 407.24 368.198C406.702 367.888 406.076 367.65 405.362 367.484C404.658 367.308 403.851 367.221 402.941 367.221C401.616 367.221 400.462 367.427 399.479 367.841C398.507 368.255 397.7 368.845 397.058 369.611C396.417 370.376 395.936 371.297 395.615 372.373C395.304 373.449 395.149 374.644 395.149 375.959C395.149 377.273 395.32 378.478 395.661 379.575C396.003 380.661 396.51 381.603 397.182 382.4C397.855 383.186 398.688 383.802 399.681 384.246C400.685 384.681 401.844 384.898 403.158 384.898C404.017 384.898 404.808 384.826 405.532 384.681C406.257 384.536 406.909 384.35 407.488 384.122C408.078 383.884 408.595 383.626 409.04 383.346C409.485 383.057 409.858 382.767 410.158 382.477V378.535H403.623V376.052H412.889V383.595C412.403 384.091 411.829 384.567 411.166 385.022C410.515 385.467 409.78 385.861 408.962 386.202C408.145 386.544 407.25 386.813 406.277 387.009C405.305 387.206 404.265 387.304 403.158 387.304C401.316 387.304 399.707 387.025 398.331 386.466C396.955 385.897 395.806 385.11 394.885 384.107C393.975 383.093 393.287 381.893 392.821 380.506C392.366 379.12 392.138 377.604 392.138 375.959Z" fill="#001A51"/>
<path d="M422.973 386.994V365.125H439.564V367.546H425.937V374.562H438.633V376.952H425.937V384.572H440.2V386.994H422.973Z" fill="#001A51"/>
<path d="M463.445 386.994L451.742 368.369C451.763 368.876 451.789 369.378 451.82 369.875C451.841 370.299 451.856 370.749 451.867 371.225C451.887 371.69 451.898 372.104 451.898 372.466V386.994H449.259V365.125H452.705L464.531 383.874C464.531 383.874 464.5 383.367 464.438 382.353C464.418 381.918 464.397 381.448 464.376 380.941C464.355 380.423 464.345 379.932 464.345 379.466V365.125H467.015V386.994H463.445Z" fill="#001A51"/>
<path d="M492.106 386.994V376.859H480.28V386.994H477.315V365.125H480.28V374.375H492.106V365.125H495.071V386.994H492.106Z" fill="#001A51"/>
<path d="M520.876 386.994L518.377 380.599H508.413L505.899 386.994H502.826L511.75 365.125H515.118L523.903 386.994H520.876ZM514.684 371.07C514.518 370.656 514.358 370.237 514.202 369.812C514.058 369.388 513.928 369.005 513.814 368.664C513.701 368.312 513.602 368.022 513.52 367.795C513.447 367.557 513.406 367.412 513.395 367.36C513.375 367.412 513.328 367.557 513.256 367.795C513.183 368.033 513.085 368.328 512.961 368.679C512.847 369.031 512.712 369.419 512.557 369.843C512.412 370.268 512.262 370.687 512.107 371.101L509.313 378.287H517.493L514.684 371.07Z" fill="#001A51"/>
<path d="M547.116 386.994L541.436 377.914H534.622V386.994H531.658V365.125H541.948C543.19 365.125 544.286 365.27 545.238 365.56C546.201 365.839 547.008 366.248 547.66 366.786C548.311 367.324 548.808 367.981 549.15 368.757C549.491 369.533 549.662 370.407 549.662 371.38C549.662 372.073 549.558 372.756 549.351 373.429C549.155 374.101 548.839 374.717 548.405 375.276C547.97 375.834 547.416 376.315 546.744 376.719C546.071 377.123 545.264 377.407 544.323 377.573L550.531 386.994H547.116ZM546.682 371.411C546.682 370.749 546.568 370.175 546.34 369.688C546.113 369.202 545.782 368.798 545.347 368.478C544.912 368.147 544.385 367.903 543.764 367.748C543.143 367.583 542.44 367.5 541.653 367.5H534.622V375.571H541.777C542.626 375.571 543.36 375.467 543.981 375.26C544.602 375.043 545.109 374.748 545.502 374.375C545.906 374.003 546.201 373.563 546.387 373.056C546.584 372.549 546.682 372.001 546.682 371.411Z" fill="#001A51"/>
<path d="M560.04 386.994V365.125H563.004V386.994H560.04Z" fill="#001A51"/>
<path d="M589.151 386.994L586.653 380.599H576.688L574.174 386.994H571.101L580.025 365.125H583.393L592.178 386.994H589.151ZM582.959 371.07C582.793 370.656 582.633 370.237 582.478 369.812C582.333 369.388 582.203 369.005 582.09 368.664C581.976 368.312 581.877 368.022 581.795 367.795C581.722 367.557 581.681 367.412 581.671 367.36C581.65 367.412 581.603 367.557 581.531 367.795C581.458 368.033 581.36 368.328 581.236 368.679C581.122 369.031 580.988 369.419 580.832 369.843C580.688 370.268 580.538 370.687 580.382 371.101L577.589 378.287H585.768L582.959 371.07Z" fill="#001A51"/>
</svg>
