<svg xmlns="http://www.w3.org/2000/svg" width="160" height="39" viewBox="0 0 160 39" fill="none"><path d="M57.474 15.5532H28.4016C28.0762 16.2751 27.8018 17.0249 27.5856 17.7979H58.2888C58.0726 17.0249 57.7994 16.2751 57.474 15.5532ZM42.9378 38.0522C46.8656 38.0522 50.4598 36.6293 53.238 34.274H32.6375C35.4158 36.6293 39.01 38.0522 42.9378 38.0522ZM54.2529 10.8729H31.6227C31.0508 11.4496 30.5242 12.0703 30.0453 12.7283H55.8315C55.3513 12.0703 54.8248 11.4496 54.2529 10.8729ZM43.9177 6.1927C43.5934 6.17294 43.2668 6.16016 42.9378 6.16016C42.6088 6.16016 42.2822 6.17294 41.9578 6.1927C39.9062 6.3171 37.9603 6.82977 36.191 7.65747H49.6834C47.9141 6.82977 45.9694 6.3171 43.9177 6.1927ZM58.7701 20.2334H27.1055C27.0335 20.8483 26.9927 21.4726 26.9927 22.1062C26.9927 22.3619 26.9998 22.6165 27.0126 22.8687H58.8642C58.8758 22.6153 58.884 22.3619 58.884 22.1062C58.8829 21.4726 58.8421 20.8483 58.7701 20.2334ZM31.3089 33.0104H54.5667C55.5257 31.9886 56.3522 30.8412 57.016 29.5939H28.8585C29.5234 30.8412 30.3499 31.9886 31.3089 33.0104ZM28.0982 27.9396H57.7773C58.1575 26.9736 58.4457 25.961 58.6318 24.9136H27.2438C27.4298 25.9622 27.7181 26.9736 28.0982 27.9396Z" fill="url(#paint0_linear_28_253)"></path><path d="M12.1404 35.5161C8.26598 35.5161 5.28438 34.8116 3.19666 33.4038C1.10778 31.996 0.0441558 30.1046 0.00695801 27.7308H3.99409C4.03128 28.9654 4.6683 30.0651 5.9028 31.03C7.13611 31.996 9.2157 32.4784 12.1404 32.4784C14.8361 32.4784 16.8587 32.0123 18.2071 31.0776C19.5544 30.1441 20.2298 29.0119 20.2298 27.6832C20.2298 25.3093 18.0455 23.9166 13.6783 23.5052L10.2607 23.2203C7.48832 22.9669 5.26694 22.2706 3.59537 21.1313C1.9238 19.992 1.08918 18.3948 1.08918 16.336C1.08918 14.1214 2.09468 12.3323 4.10801 10.9711C6.12017 9.61092 8.79841 8.92969 12.1404 8.92969C15.3673 8.92969 17.9979 9.56326 20.0298 10.8281C22.0606 12.094 23.0963 13.8982 23.1346 16.2406H19.1475C19.1091 15.0387 18.5012 14.0261 17.3248 13.2019C16.1473 12.3788 14.4199 11.9673 12.1415 11.9673C9.78646 11.9673 8.03007 12.4033 6.87228 13.2728C5.71332 14.1435 5.13443 15.1793 5.13443 16.3825C5.13443 17.4264 5.57034 18.289 6.44449 18.9702C7.31749 19.6514 8.6845 20.0699 10.5455 20.228L13.9631 20.5128C17.0005 20.7977 19.4788 21.5265 21.3968 22.6972C23.3137 23.8678 24.2738 25.5453 24.2738 27.7296C24.2738 29.2176 23.7705 30.5545 22.7638 31.7414C21.7572 32.9284 20.3425 33.8537 18.5198 34.5187C16.6983 35.1836 14.571 35.5161 12.1404 35.5161Z" fill="#FAFAFA"></path><path d="M61.7668 0.150391H65.8678V34.8057H61.7668V0.150391Z" fill="#FAFAFA"></path><path d="M71.1489 7.74544C71.1489 5.08677 71.9755 3.13261 73.6272 1.88293C75.279 0.633238 77.7191 0.0078125 80.9471 0.0078125H84.7632V3.04659H80.1498C78.5545 3.04659 77.3385 3.39533 76.5038 4.09051C75.6684 4.78685 75.2511 5.768 75.2511 7.03397V9.40777H82.9787V12.6953H75.2511V34.8061H71.1496L71.1489 7.74544Z" fill="#FAFAFA"></path><path d="M93.4161 35.4695C87.5356 35.4695 83.744 32.1843 83.744 27.3983C83.744 24.8663 84.7782 22.9203 86.8486 21.559C88.9177 20.1989 91.8331 19.5177 95.5921 19.5177H104.023V18.4854C104.023 16.6184 103.434 15.1862 102.258 14.1888C101.08 13.1913 99.2572 12.6938 96.7897 12.6938C95.0808 12.6938 87.9026 12.6938 87.9026 12.6938V9.40625C89.7171 9.40625 93.9601 9.40625 95.2517 9.40625C100.665 9.40625 103.141 10.127 105.136 11.5662C107.129 13.0065 108.127 15.3722 108.127 18.6633V34.8046H104.026V28.2178C102.466 32.4552 97.4917 35.4695 93.4161 35.4695ZM93.585 31.9565C102.777 31.9565 104.023 23.0133 104.023 22.4716C104.023 22.4007 104.023 22.267 104.023 22.267L95.9632 22.224C89.9581 22.224 87.9026 24.5583 87.9026 27.446C87.9026 30.7439 91.3062 31.9565 93.585 31.9565Z" fill="#FAFAFA"></path><path d="M112.738 22.1764V21.8439C112.738 20.2607 113.052 18.6948 113.678 17.144C114.305 15.5932 115.246 14.1842 116.498 12.9183C117.752 11.6523 119.318 10.6398 121.198 9.8795C123.078 9.12038 125.29 8.74023 127.835 8.74023C130.303 8.74023 132.553 9.12855 134.585 9.90395C136.615 10.6793 138.259 11.7709 139.513 13.1799C140.765 14.5876 141.486 16.2419 141.677 18.1414H137.575C137.348 16.4326 136.351 14.9677 134.585 13.7495C132.819 12.5312 130.569 11.922 127.835 11.922C125.404 11.922 123.392 12.3882 121.796 13.3228C120.201 14.2564 119.005 15.499 118.206 17.0498C117.409 18.5994 117.01 20.3095 117.01 22.1776C117.01 24.0458 117.409 25.7546 118.206 27.3054C119.004 28.8562 120.199 30.0989 121.796 31.0324C123.391 31.9658 125.403 32.4332 127.835 32.4332C130.569 32.4332 132.819 31.824 134.585 30.6057C136.351 29.3874 137.348 27.9238 137.575 26.2138H141.677C141.486 28.1133 140.765 29.7676 139.513 31.1753C138.259 32.5843 136.615 33.6759 134.585 34.4513C132.553 35.2266 130.303 35.6149 127.835 35.6149C125.29 35.6149 123.078 35.2348 121.198 34.4757C119.318 33.7165 117.752 32.7041 116.498 31.4369C115.246 30.1709 114.305 28.7632 113.678 27.2112C113.052 25.6604 112.738 24.0946 112.738 22.5112C112.738 22.5089 112.738 22.1764 112.738 22.1764Z" fill="#FAFAFA"></path><path d="M146.08 34.8049V9.69141H150.181V34.8049H146.08Z" fill="#FAFAFA"></path><path d="M146.08 5.75053V0.148438H150.181V5.75053H146.08Z" fill="#FAFAFA"></path><path d="M90.9603 3.57976L104.023 0.150391V3.13801L90.9603 6.56855V3.57976Z" fill="#FAFAFA"></path><path d="M155.377 0.150391H159.478V34.8057H155.377V0.150391Z" fill="#FAFAFA"></path><defs><linearGradient id="paint0_linear_28_253" x1="42.9379" y1="38.1038" x2="42.9379" y2="6.1506" gradientUnits="userSpaceOnUse"><stop stop-color="#00B569"></stop><stop offset="1" stop-color="#BFFF00"></stop></linearGradient></defs></svg>